HIERARCHY
ROOT Hips
{
	OFFSET -0.001795 -0.223333 0.028219
	CHANNELS 6 Xposition Yposition Zposition Zrotation Yrotation Xrotation 
	JOINT LeftUpLeg
	{
		OFFSET 0.069520 -0.091406 -0.006815
		CHANNELS 3 Zrotation Yrotation Xrotation
		JOINT LeftLeg
		{
			OFFSET 0.034277 -0.375199 -0.004496
			CHANNELS 3 Zrotation Yrotation Xrotation
			JOINT LeftFoot
			{
				OFFSET -0.013596 -0.397961 -0.043693
				CHANNELS 3 Zrotation Yrotation Xrotation
				JOINT LeftToe
				{
					OFFSET 0.026358 -0.055791 0.119288
					CHANNELS 3 Zrotation Yrotation Xrotation
					End Site
					{
						OFFSET 0.000000 0.000000 0.000000
					}
				}
			}
		}
	}
	JOINT RightUpLeg
	{
		OFFSET -0.067670 -0.090522 -0.004320
		CHANNELS 3 Zrotation Yrotation Xrotation
		JOINT RightLeg
		{
			OFFSET -0.038290 -0.382569 -0.008850
			CHANNELS 3 Zrotation Yrotation Xrotation
			JOINT RightFoot
			{
				OFFSET 0.015774 -0.398415 -0.042312
				CHANNELS 3 Zrotation Yrotation Xrotation
				JOINT RightToe
				{
					OFFSET -0.025372 -0.048144 0.123348
					CHANNELS 3 Zrotation Yrotation Xrotation
					End Site
					{
						OFFSET 0.000000 0.000000 0.000000
					}
				}
			}
		}
	}
	JOINT Spine
	{
		OFFSET -0.002533 0.108963 -0.026696
		CHANNELS 3 Zrotation Yrotation Xrotation
		JOINT Spine1
		{
			OFFSET 0.005487 0.135180 0.001092
			CHANNELS 3 Zrotation Yrotation Xrotation
			JOINT Spine2
			{
				OFFSET 0.001457 0.052922 0.025425
				CHANNELS 3 Zrotation Yrotation Xrotation
				JOINT Neck
				{
					OFFSET -0.002778 0.213870 -0.042857
					CHANNELS 3 Zrotation Yrotation Xrotation
					JOINT Head
					{
						OFFSET 0.005152 0.064970 0.051349
						CHANNELS 3 Zrotation Yrotation Xrotation
						End Site
						{
							OFFSET 0.000000 0.000000 0.000000
						}
					}
				}
				JOINT LeftShoulder
				{
					OFFSET 0.078845 0.121749 -0.034090
					CHANNELS 3 Zrotation Yrotation Xrotation
					JOINT LeftArm
					{
						OFFSET 0.090977 0.030469 -0.008868
						CHANNELS 3 Zrotation Yrotation Xrotation
						JOINT LeftForeArm
						{
							OFFSET 0.259612 -0.012772 -0.027456
							CHANNELS 3 Zrotation Yrotation Xrotation
							JOINT LeftHand
							{
								OFFSET 0.249234 0.008986 -0.001171
								CHANNELS 3 Zrotation Yrotation Xrotation
								End Site
								{
									OFFSET 0.000000 0.000000 0.000000
								}
							}
						}
					}
				}
				JOINT RightShoulder
				{
					OFFSET -0.081759 0.118833 -0.038615
					CHANNELS 3 Zrotation Yrotation Xrotation
					JOINT RightArm
					{
						OFFSET -0.096012 0.032551 -0.009143
						CHANNELS 3 Zrotation Yrotation Xrotation
						JOINT RightForeArm
						{
							OFFSET -0.253742 -0.013329 -0.021401
							CHANNELS 3 Zrotation Yrotation Xrotation
							JOINT RightHand
							{
								OFFSET -0.255298 0.007772 -0.005559
								CHANNELS 3 Zrotation Yrotation Xrotation
								End Site
								{
									OFFSET 0.000000 0.000000 0.000000
								}
							}
						}
					}
				}
			}
		}
	}
}
MOTION
Frames: 10
Frame Time: 0.050000
-0.117498 0.928576 -0.347735 -2.217204 8.753768 -0.144360 1.434522 -0.126400 -1.189435 6.720908 0.872763 -20.504216 -50.276743 -23.273313 63.089221 0.000000 0.000000 0.000000 -1.765358 1.374891 -18.852714 4.012710 -0.765102 16.451891 -13.458974 -27.048100 18.931422 0.000000 0.000000 0.000000 -2.996211 -0.340439 13.551370 0.748942 -0.407861 0.677945 3.704823 -3.433977 11.272463 1.612596 0.702587 -23.353945 0.000000 0.000000 0.000000 7.952983 -13.241724 4.078242 -62.822487 -40.026588 14.930253 56.915085 -53.874602 -27.106835 0.000000 0.000000 0.000000 -9.141198 20.744871 5.943806 57.053140 39.167349 13.879226 -18.780297 42.457400 -5.212937 0.000000 0.000000 0.000000 
-0.125887 0.926082 -0.335587 -1.619141 9.235376 0.065993 1.138713 -0.050520 -0.236491 7.200120 0.943031 -21.368220 -51.223629 -24.123090 63.111405 0.000000 0.000000 0.000000 -1.677645 1.247355 -16.613486 3.970745 -0.696031 13.701021 -13.802181 -28.139793 16.324657 0.000000 0.000000 0.000000 -2.997442 -0.272421 11.656790 0.939311 -0.518460 0.891828 3.567438 -4.204845 11.109586 1.831050 0.473308 -22.835709 0.000000 0.000000 0.000000 7.406067 -13.831194 4.244361 -62.803083 -40.782467 15.565103 59.816282 -54.673630 -29.153889 0.000000 0.000000 0.000000 -8.919675 21.251089 6.131637 55.772671 40.005728 13.798974 -17.776535 41.850551 -4.833688 0.000000 0.000000 0.000000 
-0.134804 0.923594 -0.320110 -1.375150 8.604571 0.126012 0.868696 0.048291 0.961977 8.733586 1.113378 -21.711605 -52.161325 -25.745483 62.208985 0.000000 0.000000 0.000000 -1.086645 1.257116 -15.268599 3.980821 -0.656137 12.897555 -13.522906 -28.448105 13.455588 0.000000 0.000000 0.000000 -2.523064 -0.238430 9.684905 0.968804 -0.503816 0.509393 3.325302 -4.699627 11.749476 1.918915 0.280589 -22.352625 0.000000 0.000000 0.000000 6.067873 -13.022474 4.071672 -63.180847 -39.616327 15.049763 59.925058 -57.769983 -30.824977 0.000000 0.000000 0.000000 -8.505170 20.880755 6.100348 55.367709 40.530294 13.711924 -15.933629 43.011075 -4.350022 0.000000 0.000000 0.000000 
-0.144645 0.921947 -0.303514 -1.315622 8.982319 0.141213 1.217412 0.022808 0.804248 9.498857 1.009952 -19.822124 -54.016515 -27.885193 61.875514 0.000000 0.000000 0.000000 -0.669983 1.196396 -13.780705 4.652496 -0.814224 12.108289 -13.692925 -29.331369 11.289974 0.000000 0.000000 0.000000 -2.325297 -0.201036 8.073652 1.350432 -0.731442 1.032249 3.252680 -5.399622 11.464865 2.074075 0.139659 -22.439458 0.000000 0.000000 0.000000 5.552733 -12.840361 4.041117 -63.075783 -38.976416 14.746344 60.037789 -58.448423 -31.199195 0.000000 0.000000 0.000000 -8.059852 20.752684 6.146766 54.272139 40.311346 13.130029 -14.317981 43.912338 -3.903683 0.000000 0.000000 0.000000 
-0.155142 0.923389 -0.287630 -1.396577 8.489543 0.053075 1.586486 -0.080466 -0.509901 10.709374 0.665884 -15.359545 -55.006867 -29.742213 61.023478 0.000000 0.000000 0.000000 0.409214 1.176166 -12.013657 4.541894 -0.737493 10.773202 -13.355956 -29.150183 10.013360 0.000000 0.000000 0.000000 -1.922229 -0.197040 7.207414 1.447227 -0.728682 0.388917 3.129162 -5.592757 11.861494 2.280529 -0.072093 -21.960332 0.000000 0.000000 0.000000 5.026598 -12.669242 4.014597 -62.384776 -37.736847 13.769661 58.499931 -58.613274 -30.177588 0.000000 0.000000 0.000000 -7.752358 20.611986 6.149206 53.899476 40.146854 12.801811 -13.804259 44.572206 -3.801445 0.000000 0.000000 0.000000 
-0.165470 0.926838 -0.273460 -1.446704 9.083597 -0.290696 2.262288 -0.237762 -2.597350 11.010563 0.045522 -9.623821 -55.542291 -29.967619 61.510915 0.000000 0.000000 0.000000 1.660532 1.088325 -9.930547 3.919467 -0.585091 9.272015 -13.554905 -29.515603 10.192042 0.000000 0.000000 0.000000 -1.637630 -0.209453 6.932279 1.881114 -0.915927 0.067018 3.089077 -6.015220 11.868970 1.928039 0.104607 -21.869607 0.000000 0.000000 0.000000 4.404701 -12.615989 4.035204 -60.741847 -37.886093 13.337276 56.664415 -57.488624 -28.382178 0.000000 0.000000 0.000000 -7.035452 20.921222 6.316430 53.244196 40.394100 12.688643 -14.038142 45.202634 -3.971135 0.000000 0.000000 0.000000 
-0.174493 0.930153 -0.260063 -1.091842 9.329778 -0.339798 2.598579 -0.445599 -5.561713 6.632180 -1.365356 6.845921 -16.147526 -21.022405 13.644431 0.000000 0.000000 0.000000 2.318171 0.916913 -7.877432 3.404024 -0.455787 7.237566 -13.518912 -29.494740 10.260288 0.000000 0.000000 0.000000 -1.851572 -0.197274 6.930970 2.102838 -1.014134 -0.054244 3.329083 -6.095291 11.935878 1.734518 0.227569 -22.046379 0.000000 0.000000 0.000000 4.385653 -13.041621 4.162873 -58.494337 -38.740303 13.135267 56.535203 -54.522036 -26.669616 0.000000 0.000000 0.000000 -6.754751 21.096822 6.395957 53.896137 41.177471 13.304572 -18.221639 45.897935 -5.731780 0.000000 0.000000 0.000000 
-0.181063 0.932674 -0.246937 -0.663241 9.754489 -0.508230 2.585615 -0.598552 -7.595510 2.521201 -1.647301 17.658226 -4.392156 -8.751604 0.979152 0.000000 0.000000 0.000000 2.934591 0.739182 -6.036993 2.527760 -0.289393 5.871451 -13.622047 -29.703727 10.389356 0.000000 0.000000 0.000000 -1.888960 -0.200753 7.035144 2.208645 -1.024042 -0.545089 3.501674 -6.081373 12.006391 1.320940 0.494190 -22.128570 0.000000 0.000000 0.000000 4.608073 -13.402530 4.253687 -56.375121 -39.843173 13.040252 55.191384 -51.753944 -24.494268 0.000000 0.000000 0.000000 -6.672038 21.188809 6.422460 54.826523 42.876376 14.569006 -20.443320 45.483093 -6.520050 0.000000 0.000000 0.000000 
-0.185047 0.934361 -0.234042 -0.199745 9.590493 -0.745696 2.182365 -0.704571 -8.735115 -2.058724 -0.783300 22.508078 2.260661 4.972793 0.585728 0.000000 0.000000 0.000000 3.479275 0.530891 -4.191754 1.382891 -0.093275 4.636782 -13.434776 -29.486116 10.174750 0.000000 0.000000 0.000000 -2.125403 -0.181309 6.869623 1.945079 -0.912159 -0.365587 3.804936 -5.599394 11.756280 1.079993 0.677711 -22.122441 0.000000 0.000000 0.000000 5.035905 -14.063375 4.422131 -55.241303 -40.380376 12.941126 55.532903 -49.975669 -23.853304 0.000000 0.000000 0.000000 -6.083245 21.595623 6.608071 55.860296 43.935562 15.633743 -24.167290 45.728650 -8.039693 0.000000 0.000000 0.000000 
-0.186979 0.935399 -0.221556 0.098237 9.239977 -0.604647 1.231005 -0.859714 -9.924782 -4.674950 -0.037408 23.485524 8.442088 17.833749 6.306474 0.000000 0.000000 0.000000 4.175061 0.353495 -2.779553 -0.007492 0.107493 3.344772 -13.187486 -29.131711 9.993054 0.000000 0.000000 0.000000 -2.425637 -0.135715 6.026606 1.861621 -0.861720 -0.498004 4.021953 -5.343222 11.717076 0.954023 0.745277 -21.947069 0.000000 0.000000 0.000000 4.789542 -14.018376 4.430917 -55.441405 -40.067249 12.816964 55.347302 -49.534198 -23.515464 0.000000 0.000000 0.000000 -6.030623 22.026891 6.739173 58.188775 45.600481 17.537441 -26.022708 45.572774 -8.734917 0.000000 0.000000 0.000000 
